# xmcd CD database file
#
# Track frame offsets:
#	150
#	21381
#	42567
#	56644
#	80045
#	96475
#	107276
#	122004
#	140994
#	158833
#
# Disc length: 2394 seconds
#
# Revision: 0
# Processed by: cddbd v1.5.2PL0 Copyright (c) Steve Scherf et al.
# Submitted via: jetAudio 7
#
DISCID=8e09580a
DTITLE=음악가 없음 - PANPIES FROM THE ANDES 
DYEAR=1900
DGENRE=장르 없음
TTITLE0=FLIGHT OF THE CONDOR
TTITLE1=SCARBOROUGH FAIR
TTITLE2=CACHARPAYA
TTITLE3=DAWN AT VILCABAMBA
TTITLE4=VIRGINS OF THE SUN
TTITLE5=LLAULILLAY
TTITLE6=AMORES HALLARAS
TTITLE7=BRAZFEST
TTITLE8=CUTIMUY
TTITLE9=VIRACOCHA
EXTD=
EXTT0=
EXTT1=
EXTT2=
EXTT3=
EXTT4=
EXTT5=
EXTT6=
EXTT7=
EXTT8=
EXTT9=
PLAYORDER=
